<svg xmlns="http://www.w3.org/2000/svg" width="1200" height="630" viewBox="0 0 1200 630">
  <defs>
    <radialGradient id="g1" cx="20%" cy="30%" r="60%">
      <stop offset="0%" stop-color="#ef4444" stop-opacity="0.12"/>
      <stop offset="100%" stop-color="#0a0a0a" stop-opacity="0"/>
    </radialGradient>
    <radialGradient id="g2" cx="80%" cy="70%" r="60%">
      <stop offset="0%" stop-color="#10b981" stop-opacity="0.12"/>
      <stop offset="100%" stop-color="#0a0a0a" stop-opacity="0"/>
    </radialGradient>
    <linearGradient id="g3" x1="0" y1="0" x2="1200" y2="630" gradientUnits="userSpaceOnUse">
      <stop offset="0%" stop-color="#1a1020"/>
      <stop offset="50%" stop-color="#0a0a0a"/>
      <stop offset="100%" stop-color="#0d1a1a"/>
    </linearGradient>
  </defs>
  <rect width="1200" height="630" fill="#0a0a0a"/>
  <rect width="1200" height="630" fill="url(#g1)"/>
  <rect width="1200" height="630" fill="url(#g2)"/>
  <!-- Grid pattern -->
  <g opacity="0.04" stroke="#fff" stroke-width="1">
    <line x1="0" y1="0" x2="0" y2="630"/><line x1="60" y1="0" x2="60" y2="630"/>
    <line x1="120" y1="0" x2="120" y2="630"/><line x1="180" y1="0" x2="180" y2="630"/>
    <line x1="240" y1="0" x2="240" y2="630"/><line x1="300" y1="0" x2="300" y2="630"/>
    <line x1="360" y1="0" x2="360" y2="630"/><line x1="420" y1="0" x2="420" y2="630"/>
    <line x1="480" y1="0" x2="480" y2="630"/><line x1="540" y1="0" x2="540" y2="630"/>
    <line x1="600" y1="0" x2="600" y2="630"/><line x1="660" y1="0" x2="660" y2="630"/>
    <line x1="720" y1="0" x2="720" y2="630"/><line x1="780" y1="0" x2="780" y2="630"/>
    <line x1="840" y1="0" x2="840" y2="630"/><line x1="900" y1="0" x2="900" y2="630"/>
    <line x1="960" y1="0" x2="960" y2="630"/><line x1="1020" y1="0" x2="1020" y2="630"/>
    <line x1="1080" y1="0" x2="1080" y2="630"/><line x1="1140" y1="0" x2="1140" y2="630"/>
    <line x1="0" y1="0" x2="1200" y2="0"/><line x1="0" y1="60" x2="1200" y2="60"/>
    <line x1="0" y1="120" x2="1200" y2="120"/><line x1="0" y1="180" x2="1200" y2="180"/>
    <line x1="0" y1="240" x2="1200" y2="240"/><line x1="0" y1="300" x2="1200" y2="300"/>
    <line x1="0" y1="360" x2="1200" y2="360"/><line x1="0" y1="420" x2="1200" y2="420"/>
    <line x1="0" y1="480" x2="1200" y2="480"/><line x1="0" y1="540" x2="1200" y2="540"/>
    <line x1="0" y1="600" x2="1200" y2="600"/>
  </g>
  <!-- Ballot box emoji area -->
  <text x="600" y="200" text-anchor="middle" font-size="100" fill="#fff" opacity="0.9">🗳️</text>
  <!-- Title -->
  <text x="600" y="330" text-anchor="middle" font-family="system-ui, -apple-system, sans-serif" font-weight="900" font-size="96" letter-spacing="-4" fill="#ffffff">VALG<tspan fill="#ef4444">SPIL</tspan>26</text>
  <!-- Subtitle -->
  <text x="600" y="400" text-anchor="middle" font-family="system-ui, -apple-system, sans-serif" font-weight="700" font-size="32" fill="#94a3b8">To spil · 12 partier · Find dit match</text>
  <!-- Game labels -->
  <rect x="320" y="450" width="240" height="56" rx="12" fill="#ef4444" fill-opacity="0.15"/>
  <text x="440" y="486" text-anchor="middle" font-family="system-ui, -apple-system, sans-serif" font-weight="800" font-size="22" fill="#f87171">🔥 ValgTinder</text>
  <rect x="640" y="450" width="240" height="56" rx="12" fill="#10b981" fill-opacity="0.15"/>
  <text x="760" y="486" text-anchor="middle" font-family="system-ui, -apple-system, sans-serif" font-weight="800" font-size="22" fill="#34d399">🏛️ FinansMinister</text>
  <!-- Bottom tagline -->
  <text x="600" y="570" text-anchor="middle" font-family="system-ui, -apple-system, sans-serif" font-weight="600" font-size="20" fill="#475569">lajlev.github.io/tinder-valg</text>
</svg>
